<svg viewBox="0 0 330 200" xmlns="http://www.w3.org/2000/svg"><g><g><g><g><g><line x1="70" y1="177" x2="65" y2="177" style="visibility: inherit;" fill="rgb(0, 0, 0)" stroke="rgb(204, 204, 204)" stroke-width="1px"></line><line x1="70" y1="159.2999999999999" x2="65" y2="159.2999999999999" style="visibility: inherit;" fill="rgb(0, 0, 0)" stroke="rgb(204, 204, 204)" stroke-width="1px"></line><line x1="70" y1="141.59999999999997" x2="65" y2="141.59999999999997" style="visibility: inherit;" fill="rgb(0, 0, 0)" stroke="rgb(204, 204, 204)" stroke-width="1px"></line><line x1="70" y1="123.89999999999988" x2="65" y2="123.89999999999988" style="visibility: inherit;" fill="rgb(0, 0, 0)" stroke="rgb(204, 204, 204)" stroke-width="1px"></line><line x1="70" y1="106.19999999999993" x2="65" y2="106.19999999999993" style="visibility: inherit;" fill="rgb(0, 0, 0)" stroke="rgb(204, 204, 204)" stroke-width="1px"></line><line x1="70" y1="88.5" x2="65" y2="88.5" style="visibility: inherit;" fill="rgb(0, 0, 0)" stroke="rgb(204, 204, 204)" stroke-width="1px"></line><line x1="70" y1="70.79999999999991" x2="65" y2="70.79999999999991" style="visibility: inherit;" fill="rgb(0, 0, 0)" stroke="rgb(204, 204, 204)" stroke-width="1px"></line><line x1="70" y1="53.099999999999966" x2="65" y2="53.099999999999966" style="visibility: inherit;" fill="rgb(0, 0, 0)" stroke="rgb(204, 204, 204)" stroke-width="1px"></line><line x1="70" y1="35.39999999999988" x2="65" y2="35.39999999999988" style="visibility: inherit;" fill="rgb(0, 0, 0)" stroke="rgb(204, 204, 204)" stroke-width="1px"></line><line x1="70" y1="17.69999999999994" x2="65" y2="17.69999999999994" style="visibility: inherit;" fill="rgb(0, 0, 0)" stroke="rgb(204, 204, 204)" stroke-width="1px"></line><line x1="70" y1="0" x2="65" y2="0" style="visibility: inherit;" fill="rgb(0, 0, 0)" stroke="rgb(204, 204, 204)" stroke-width="1px"></line></g><g transform="translate(60, 0)"><text x="0" y="177" dx="0em" dy="0.3em" style="text-anchor: end; visibility: hidden; font-family: Roboto, sans-serif; font-size: 12px; font-weight: 200;" fill="rgb(33, 33, 33)" stroke="none" stroke-width="1px">-12.8</text><text x="0" y="159.2999999999999" dx="0em" dy="0.3em" style="text-anchor: end; visibility: inherit; font-family: Roboto, sans-serif; font-size: 12px; font-weight: 200;" fill="rgb(33, 33, 33)" stroke="none" stroke-width="1px">-12.6</text><text x="0" y="141.59999999999997" dx="0em" dy="0.3em" style="text-anchor: end; visibility: hidden; font-family: Roboto, sans-serif; font-size: 12px; font-weight: 200;" fill="rgb(33, 33, 33)" stroke="none" stroke-width="1px">-12.4</text><text x="0" y="123.89999999999988" dx="0em" dy="0.3em" style="text-anchor: end; visibility: inherit; font-family: Roboto, sans-serif; font-size: 12px; font-weight: 200;" fill="rgb(33, 33, 33)" stroke="none" stroke-width="1px">-12.2</text><text x="0" y="106.19999999999993" dx="0em" dy="0.3em" style="text-anchor: end; visibility: hidden; font-family: Roboto, sans-serif; font-size: 12px; font-weight: 200;" fill="rgb(33, 33, 33)" stroke="none" stroke-width="1px">-12</text><text x="0" y="88.5" dx="0em" dy="0.3em" style="text-anchor: end; visibility: inherit; font-family: Roboto, sans-serif; font-size: 12px; font-weight: 200;" fill="rgb(33, 33, 33)" stroke="none" stroke-width="1px">-11.8</text><text x="0" y="70.79999999999991" dx="0em" dy="0.3em" style="text-anchor: end; visibility: hidden; font-family: Roboto, sans-serif; font-size: 12px; font-weight: 200;" fill="rgb(33, 33, 33)" stroke="none" stroke-width="1px">-11.6</text><text x="0" y="53.099999999999966" dx="0em" dy="0.3em" style="text-anchor: end; visibility: inherit; font-family: Roboto, sans-serif; font-size: 12px; font-weight: 200;" fill="rgb(33, 33, 33)" stroke="none" stroke-width="1px">-11.4</text><text x="0" y="35.39999999999988" dx="0em" dy="0.3em" style="text-anchor: end; visibility: hidden; font-family: Roboto, sans-serif; font-size: 12px; font-weight: 200;" fill="rgb(33, 33, 33)" stroke="none" stroke-width="1px">-11.2</text><text x="0" y="17.69999999999994" dx="0em" dy="0.3em" style="text-anchor: end; visibility: inherit; font-family: Roboto, sans-serif; font-size: 12px; font-weight: 200;" fill="rgb(33, 33, 33)" stroke="none" stroke-width="1px">-11</text><text x="0" y="0" dx="0em" dy="0.3em" style="text-anchor: end; visibility: hidden; font-family: Roboto, sans-serif; font-size: 12px; font-weight: 200;" fill="rgb(33, 33, 33)" stroke="none" stroke-width="1px">-10.8</text></g><line x1="70" y1="0" x2="70" y2="177" fill="rgb(0, 0, 0)" stroke="rgb(204, 204, 204)" stroke-width="1px"></line></g></g><g transform="translate(70, 0)" clip-path="url(#clip_0)"><clipPath id="clip_0"><rect width="260" height="177"></rect></clipPath><g><g><g><line x1="0" y1="0" x2="0" y2="177" fill="rgb(0, 0, 0)" stroke="rgb(66, 66, 66)" stroke-width="1px" opacity="0.25"></line><line x1="21.666666666666664" y1="0" x2="21.666666666666664" y2="177" fill="rgb(0, 0, 0)" stroke="rgb(66, 66, 66)" stroke-width="1px" opacity="0.25"></line><line x1="43.33333333333333" y1="0" x2="43.33333333333333" y2="177" fill="rgb(0, 0, 0)" stroke="rgb(66, 66, 66)" stroke-width="1px" opacity="0.25"></line><line x1="65" y1="0" x2="65" y2="177" fill="rgb(0, 0, 0)" stroke="rgb(66, 66, 66)" stroke-width="1px" opacity="0.25"></line><line x1="86.66666666666666" y1="0" x2="86.66666666666666" y2="177" fill="rgb(0, 0, 0)" stroke="rgb(66, 66, 66)" stroke-width="1px" opacity="0.25"></line><line x1="108.33333333333334" y1="0" x2="108.33333333333334" y2="177" fill="rgb(0, 0, 0)" stroke="rgb(66, 66, 66)" stroke-width="1px" opacity="0.25"></line><line x1="130" y1="0" x2="130" y2="177" fill="rgb(0, 0, 0)" stroke="rgb(66, 66, 66)" stroke-width="1px" opacity="0.25"></line><line x1="151.66666666666669" y1="0" x2="151.66666666666669" y2="177" fill="rgb(0, 0, 0)" stroke="rgb(66, 66, 66)" stroke-width="1px" opacity="0.25"></line><line x1="173.33333333333331" y1="0" x2="173.33333333333331" y2="177" fill="rgb(0, 0, 0)" stroke="rgb(66, 66, 66)" stroke-width="1px" opacity="0.25"></line><line x1="195" y1="0" x2="195" y2="177" fill="rgb(0, 0, 0)" stroke="rgb(66, 66, 66)" stroke-width="1px" opacity="0.25"></line><line x1="216.66666666666669" y1="0" x2="216.66666666666669" y2="177" fill="rgb(0, 0, 0)" stroke="rgb(66, 66, 66)" stroke-width="1px" opacity="0.25"></line><line x1="238.33333333333331" y1="0" x2="238.33333333333331" y2="177" fill="rgb(0, 0, 0)" stroke="rgb(66, 66, 66)" stroke-width="1px" opacity="0.25"></line><line x1="260" y1="0" x2="260" y2="177" fill="rgb(0, 0, 0)" stroke="rgb(66, 66, 66)" stroke-width="1px" opacity="0.25"></line></g><g><line x1="0" y1="177" x2="260" y2="177" fill="rgb(0, 0, 0)" stroke="rgb(66, 66, 66)" stroke-width="1px" opacity="0.25"></line><line x1="0" y1="159.2999999999999" x2="260" y2="159.2999999999999" fill="rgb(0, 0, 0)" stroke="rgb(66, 66, 66)" stroke-width="1px" opacity="0.25"></line><line x1="0" y1="141.59999999999997" x2="260" y2="141.59999999999997" fill="rgb(0, 0, 0)" stroke="rgb(66, 66, 66)" stroke-width="1px" opacity="0.25"></line><line x1="0" y1="123.89999999999988" x2="260" y2="123.89999999999988" fill="rgb(0, 0, 0)" stroke="rgb(66, 66, 66)" stroke-width="1px" opacity="0.25"></line><line x1="0" y1="106.19999999999993" x2="260" y2="106.19999999999993" fill="rgb(0, 0, 0)" stroke="rgb(66, 66, 66)" stroke-width="1px" opacity="0.25"></line><line x1="0" y1="88.5" x2="260" y2="88.5" fill="rgb(0, 0, 0)" stroke="rgb(66, 66, 66)" stroke-width="1px" opacity="0.25"></line><line x1="0" y1="70.79999999999991" x2="260" y2="70.79999999999991" fill="rgb(0, 0, 0)" stroke="rgb(66, 66, 66)" stroke-width="1px" opacity="0.25"></line><line x1="0" y1="53.099999999999966" x2="260" y2="53.099999999999966" fill="rgb(0, 0, 0)" stroke="rgb(66, 66, 66)" stroke-width="1px" opacity="0.25"></line><line x1="0" y1="35.39999999999988" x2="260" y2="35.39999999999988" fill="rgb(0, 0, 0)" stroke="rgb(66, 66, 66)" stroke-width="1px" opacity="0.25"></line><line x1="0" y1="17.69999999999994" x2="260" y2="17.69999999999994" fill="rgb(0, 0, 0)" stroke="rgb(66, 66, 66)" stroke-width="1px" opacity="0.25"></line><line x1="0" y1="0" x2="260" y2="0" fill="rgb(0, 0, 0)" stroke="rgb(66, 66, 66)" stroke-width="1px" opacity="0.25"></line></g></g></g><g><g><line x1="0" y1="-955.8000000000001" x2="260" y2="-955.8000000000001" fill="rgb(0, 0, 0)" stroke="rgb(153, 153, 153)" stroke-width="1.5px"></line></g></g><g><g><line x1="21.666666666666664" y1="0" x2="21.666666666666664" y2="177" fill="rgb(0, 0, 0)" stroke="rgb(153, 153, 153)" stroke-width="1.5px"></line></g></g><g><g><g><g><g><path stroke="rgb(255, 112, 67)" stroke-width="2px" d="M23.822499999999998,235.2947258407425L24.36416666666667,113.03493093724455L24.905833333333334,59.87695538256721L25.4475,-29.0059590475703L30.864166666666666,-13.446625944872004L31.405833333333334,5.030376721609897L31.947499999999998,18.111567303353365L32.48916666666667,24.635384237328584L33.030833333333334,20.68204282267087L33.5725,29.486811827835492L34.11416666666667,40.26382486362274L34.655833333333334,62.43066161084138L35.1975,67.70607634199884L35.73916666666666,55.2899082168433L36.280833333333334,44.72541438149581L36.8225,20.84591139542369L37.36416666666666,6.357205755939952L37.905833333333334,15.266024352481285L38.447500000000005,15.866737341656869L38.98916666666667,10.910185691801047L39.530833333333334,1.0750839242902162L40.072500000000005,6.311814366936101L40.61416666666667,12.81936509684942L41.155833333333334,13.347902760747342L41.6975,20.766492859548023L42.23916666666667,28.95414028985833L42.780833333333334,35.998507340922984L43.3225,42.54828250516061L43.86416666666666,17.709849521787373L44.405833333333334,30.93538861184834L44.9475,33.600493656447L45.48916666666666,51.676130821168066L46.030833333333334,60.38901148309287L46.572500000000005,67.43073460271621L47.11416666666667,58.709040319673456L47.655833333333334,52.61843545426224L48.197500000000005,57.263176992329115L48.73916666666667,67.01390613425939L49.280833333333334,67.49362225613882L49.8225,67.2590548300964L50.36416666666667,64.22551159914516L50.905833333333334,68.04035911173688L51.4475,75.49389750141727L51.98916666666666,77.25292124993086L52.530833333333334,66.63375216828999L53.0725,67.52605824952224L53.61416666666666,71.20858192905956L54.155833333333334,77.00208523650682L54.697500000000005,61.590233977711414L55.23916666666667,69.96924848978247L55.780833333333334,66.36753326530183L56.322500000000005,68.83903830597028L56.86416666666667,65.7296766906317L57.405833333333334,62.48281802686253L57.9475,61.62609503702671L58.48916666666667,70.1649295878005L59.030833333333334,70.18126401719891L59.5725,70.51536819965254L60.11416666666666,83.44871380527549L60.655833333333334,80.78972809629938L61.1975,81.44479338922184L61.73916666666666,78.92619896405841L62.280833333333334,95.11056701001883L62.822500000000005,97.45717313402069L63.36416666666667,97.62407127849004L63.905833333333334,95.91287872782755L64.4475,87.0435477473232L64.98916666666666,90.76216534997266L65.53083333333333,94.28881140669034L66.07249999999999,86.37292342189272L66.61416666666666,83.95517949473346L67.15583333333333,85.59006952472971L67.6975,84.44288078725756L68.23916666666668,81.76512173386371L68.78083333333333,86.20220423714423L69.3225,90.21129612234257L69.86416666666666,89.736871220635L70.40583333333333,91.90966629744098L70.94749999999999,98.45557278207785L71.48916666666668,102.74410193508481L72.03083333333333,114.44512115600844L72.5725,107.92517441484951L73.11416666666666,114.47434783590074L73.65583333333333,109.89958044361579L74.19749999999999,117.33593957762949L74.73916666666666,113.12337701666087L75.28083333333333,114.59239896832979L75.8225,107.12978468553824L76.36416666666668,104.4109707950628L76.90583333333333,108.54310828758904L77.4475,112.55908136936044L77.98916666666666,121.39746189726903L78.53083333333333,122.93546025085111L79.07249999999999,124.1653455499594L79.61416666666668,130.88299051790088L80.15583333333333,129.45473027939875L80.6975,127.02232179203143L81.23916666666666,123.54577469716311L81.78083333333333,131.85902420992463L82.32249999999999,127.72552414970498L82.86416666666666,129.24568202208386L83.40583333333333,127.61240414035642L83.9475,125.48176899542675L84.48916666666668,128.0286171394502L85.03083333333333,131.2398971564279L85.5725,124.1183550377292L86.11416666666666,127.49980091413471L86.65583333333333,128.70989802920815L87.19749999999999,127.02170721479312L87.73916666666668,120.84434595848367L88.28083333333333,122.0931396093117L88.8225,119.68549242119124L89.36416666666666,120.89680657711638L89.90583333333333,119.81960733082454L90.44749999999999,122.76106761523269L90.98916666666666,129.78978906117445L91.53083333333333,135.20800825609973L92.0725,127.49554030288292L92.61416666666668,132.11465629260962L93.15583333333333,132.81668994452235L93.6975,137.24733052457L94.23916666666666,130.2776395206087L94.78083333333333,132.9343915928204L95.32249999999999,133.94023764518928L95.86416666666668,142.16571054839164L96.40583333333333,148.16689055758545L96.9475,154.74230161189834L97.48916666666666,151.89764463936532L98.03083333333333,151.37652616589244L98.57249999999999,147.1730968315683L99.11416666666666,143.96039037579013L99.65583333333333,133.27224870338867L100.1975,136.69357029107692L100.73916666666668,128.6770995195027L101.28083333333333,125.66821104264467L101.8225,127.98658121715438L102.36416666666666,135.75209770560173L102.90583333333333,133.20668073472228L103.44749999999999,134.20609934370617L103.98916666666668,136.52124076221168L104.53083333333333,134.58975415622518L105.0725,129.29823120083486L105.61416666666666,129.70973680086936L106.15583333333333,132.28685907360057L106.69749999999999,134.91197567507453L107.23916666666666,144.31860116673553L107.78083333333333,137.79906153968193L108.3225,138.4264085829283L108.86416666666668,140.54876329913955L109.40583333333333,148.99688108516312L109.9475,149.28508888637887L110.48916666666666,148.0250314811726L111.03083333333333,155.34428775175263L111.57249999999999,155.49600447960384L112.11416666666668,153.10636622609525L112.65583333333333,153.33259188586467L113.1975,149.2574980875803L113.73916666666666,147.5879401632436L114.28083333333333,145.2157489793836L114.82249999999999,143.05939922474835L115.36416666666666,140.13692964909472L115.90583333333333,141.50721218927058L116.4475,142.3417629442938L116.98916666666668,147.52147925604595L117.53083333333333,139.84381097003924L118.0725,142.45696152798521L118.61416666666666,138.7583692505018L119.15583333333333,141.5576466713444L119.69749999999999,140.2079230697084L120.23916666666668,134.8809248219612L120.78083333333333,140.56652016786865L121.3225,142.28186128856944L121.86416666666666,151.10312480505135L122.40583333333333,147.74532916198226L122.94749999999999,146.61899312388198L123.48916666666666,139.9573396305475L124.03083333333333,141.59619804130904L124.5725,135.0383581517458L125.11416666666668,149.22718853549304L125.65583333333333,149.6807504442018L126.1975,151.88896330515658L126.73916666666666,161.75355250263308L127.28083333333333,158.3057831925637L127.82249999999999,153.36612645765655L128.36416666666668,156.33797206028225L128.90583333333333,161.2151166988783L129.4475,158.85243595247792L129.98916666666668,160.81955712993337L130.53083333333333,158.73527248677124L131.07250000000002,152.95969513993077L131.61416666666668,150.61572575580084L132.15583333333333,145.671877781243L132.69750000000002,137.68081400726726L133.23916666666668,143.58539023256253L133.78083333333333,146.9116317582245L134.3225,143.24198368603945L134.86416666666668,140.74888897714365L135.40583333333333,144.75506539743446L135.9475,143.44584079713698L136.48916666666665,149.7365667598262L137.03083333333333,146.16670909840582L137.5725,141.6310952822163L138.11416666666665,143.9313233852219L138.65583333333333,147.05874957917743L139.19750000000002,137.42973226447748L139.73916666666668,131.0889616819758L140.28083333333333,128.98198290331595L140.82250000000002,132.82235134027724L141.36416666666668,137.00088110939083L141.90583333333333,142.52164419735197L142.4475,146.611401790002L142.98916666666668,145.7214620216049L143.53083333333333,142.97887721074318L144.0725,143.29953792940054L144.61416666666665,141.96809255522132L145.15583333333333,136.2147123893037L145.6975,136.0576507073587L146.23916666666665,135.2516960212692L146.78083333333333,138.08228847593165L147.32250000000002,140.64913610675274L147.86416666666668,135.68161631333962L148.40583333333333,140.30645984753173L148.94750000000002,141.1147626866297L149.48916666666668,144.06008181723465L150.03083333333333,147.0637858033758L150.5725,147.98211155091525L151.11416666666668,146.86879569895765L151.65583333333333,145.81179677060598L152.1975,150.15508536213997L152.73916666666665,147.60573727910065L153.28083333333333,146.1020554379134L153.8225,146.81020195566566L154.36416666666665,152.60274931558413L154.90583333333333,143.25685779545665L155.44750000000002,144.96175692679998L155.98916666666668,144.97284095363898L156.53083333333333,153.61279379609812L157.07250000000002,146.69833995172334L157.61416666666668,151.75125403013712L158.15583333333333,158.4284945157735L158.6975,156.51484902041605L159.23916666666668,147.97741294317834L159.78083333333333,146.4144334028269L160.3225,148.2738129557011L160.86416666666665,148.09520122520033L161.40583333333333,146.7801722087197L161.9475,139.64573444318074L162.48916666666665,148.14072302587647L163.03083333333333,152.8188208196208L163.57250000000002,161.27921953849557L164.11416666666668,153.60084141073986L164.65583333333333,150.1405751834527L165.19750000000002,155.61895932191894L165.73916666666668,149.4813103858956L166.28083333333333,147.0845086463362L166.8225,152.90288772023294L167.36416666666668,151.82047205940052L167.90583333333333,143.69523008192093L168.4475,141.90138989654895L168.98916666666665,136.67526016715524L169.53083333333333,136.65962572970767L170.0725,141.79576689725113L170.61416666666665,143.50139666108416L171.15583333333333,150.55366182505298L171.69750000000002,153.44195293096547L172.23916666666668,141.82829818024217L172.78083333333333,146.89571341174366L173.32250000000002,151.20109342938133L173.86416666666668,150.002015160218L174.40583333333333,149.7817624808584L174.9475,153.9620281882106L175.48916666666668,146.14924865944087L176.03083333333333,147.50593010083722L176.5725,149.427426522415L177.11416666666665,145.24109422623L177.65583333333333,150.843201013541L178.1975,158.30859840672423L178.73916666666665,152.93231953469925L179.28083333333333,151.52139301819207L179.82250000000002,149.07464576195815L180.36416666666668,150.21007169003974L180.90583333333333,156.56243671824984L181.44750000000002,159.28201173927994L181.98916666666668,154.4919065206145L182.53083333333333,152.78424299164L183.0725,150.31666044983064L183.61416666666668,143.71025968739448L184.15583333333333,138.94601745712728L184.6975,137.2568107375411L185.23916666666665,141.1946055747418L185.78083333333333,143.94623046301933L186.3225,139.7417597575594L186.86416666666665,139.91806397974256L187.40583333333333,153.23135205830445L187.94750000000002,152.10945980606843L188.48916666666668,145.16911375391635L189.03083333333333,144.76030309151827L189.57250000000002,144.60529647727566L190.11416666666668,155.3016036807427L190.65583333333333,160.503367316188L191.1975,153.37825302288502L191.73916666666668,149.74825399582167L192.28083333333333,146.80271854170448L192.8225,149.3774029378974L193.36416666666665,147.9680239744015L193.90583333333333,148.76447185827277L194.4475,146.1089926654718L194.98916666666665,144.26112337053456L195.53083333333333,140.39828420828795L196.07250000000002,140.40377731432105L196.61416666666668,149.54976192802596L197.15583333333333,144.61430150970403L197.69750000000002,143.1160768617319L198.23916666666668,136.7085515016347L198.78083333333333,137.10468416641882L199.3225,142.34390252704762L199.86416666666668,141.18595584141372L200.40583333333333,144.7199416605971L200.9475,144.66535966256083L201.48916666666665,141.64431597295922L202.03083333333333,146.26037204663368L202.5725,146.32961450606916L203.11416666666665,142.5215405891043L203.65583333333333,147.79859048311948L204.19750000000002,150.89939215841554L204.73916666666668,153.78485742694838L205.28083333333333,152.34031227167964L205.82250000000002,147.0541917719704L206.36416666666668,150.10788991973456L206.90583333333333,148.0326035059855L207.4475,151.70629538961512L207.98916666666668,146.84544887345353L208.53083333333333,146.19674707726716L209.0725,146.38869672032956L209.61416666666665,147.7005059748444L210.15583333333333,141.6911545575045L210.6975,146.03566422659318L211.23916666666665,150.9996123771218L211.78083333333333,150.73186153131596L212.32250000000002,152.44167599256093L212.86416666666668,153.1027381611822L213.40583333333333,153.0153810933421L213.94750000000002,155.32438820590892L214.48916666666668,156.97570287189885L215.03083333333333,157.3857249541746L215.5725,160.33109564960256L216.11416666666668,160.10623156576068L216.65583333333333,160.41606122541106L217.1975,158.0103769734236L217.73916666666665,155.3946083520505L218.28083333333333,153.6585494843213L218.8225,154.07279111085805L219.36416666666665,149.9654821822965L219.90583333333333,145.52788132614754L220.44750000000002,151.48350962762186L220.98916666666668,151.99589161664667L221.53083333333333,143.94701917118917L222.07250000000002,133.33373831169143L222.61416666666668,139.8618687360135L223.15583333333333,134.56881440084527L223.6975,140.56401888520634L224.23916666666668,143.88148942940114L224.78083333333333,142.50553980296806L225.3225,142.09786446682023L225.86416666666665,135.28443063088164L226.40583333333333,136.31509024610148L226.9475,136.8838085581438L227.48916666666665,133.6808169843655L228.03083333333333,139.35519090787244L228.57250000000002,133.21569976154888L229.11416666666668,133.0553185218448L229.65583333333333,133.63167008528572L230.19750000000002,139.83302849327316L230.73916666666668,135.27344958822638L231.28083333333333,132.62536870691758L231.8225,131.10746548815783L232.36416666666668,132.22538651338706L232.90583333333333,130.16812778057624L233.4475,129.7324862917972L233.98916666666665,130.10766955411307L234.53083333333333,126.49623993259252L235.0725,130.5993209781031L235.61416666666665,129.98762199878385L236.15583333333333,134.15487883865572L236.69750000000002,129.38852708561495L237.23916666666668,129.12084973458656L237.78083333333333,126.81469432670343L238.32250000000002,124.35962833653619L238.86416666666668,126.7592410947367L239.40583333333333,127.60582392394797L239.9475,134.8743337866535L240.48916666666668,140.94575325046162L241.03083333333333,146.87588114003532L241.5725,137.63184000243393L242.11416666666665,143.35997727057793L242.65583333333333,137.59687117990563L243.1975,138.92673429520704L243.73916666666665,145.63731025769528L244.28083333333333,138.44690869678286L244.82250000000002,140.2787828114043L245.36416666666668,142.49878935225692L245.90583333333333,147.8914821468939L246.44750000000002,146.99333323862123L246.98916666666668,147.09281946188625L247.53083333333333,153.53596391635435L248.0725,154.60536619628246L248.61416666666668,151.26487122137277L249.15583333333333,155.0141719196351L249.6975,152.36652935620566L250.23916666666665,151.03752719509646L250.78083333333333,158.02594950752592L251.3225,163.06920248071L251.86416666666665,154.42515552982402L252.40583333333333,158.34948038100592L252.94750000000002,160.27857133912548L253.48916666666668,168.77161944332914" style="fill: none;" fill="none"></path></g></g></g></g><g opacity="0.2"><g><g><g><path stroke="rgb(255, 112, 67)" stroke-width="2px" d="M22.1975,1508.4932424545289L22.739166666666666,89.25750846862786L23.280833333333334,-1.5461099624634418L28.15583333333333,-173.2067859649659L28.6975,59.31333847045892L29.239166666666666,-42.76563720703131L29.780833333333334,45.3889972686767L30.3225,103.30515832900994L30.864166666666666,34.8280031204223L31.405833333333334,88.82672996520989L31.947499999999998,77.84702653884881L32.48916666666667,54.59519977569574L33.030833333333334,2.442473602294859L33.5725,70.26443023681634L34.11416666666667,90.33200712203973L34.655833333333334,165.67958993911736L35.1975,92.33009691238396L35.73916666666666,-2.766198921203676L37.36416666666666,-61.63397197723395L37.905833333333334,57.106105041503845L38.447500000000005,18.689845275878845L38.98916666666667,-12.39634351730353L39.530833333333334,-45.19205789566046L40.072500000000005,30.9560606002807L40.61416666666667,43.45353240966791L41.155833333333334,15.836612892150816L41.6975,55.70548410415643L42.23916666666667,67.52176208496087L42.780833333333334,69.18545837402337L43.3225,73.4087588310241L43.86416666666666,-99.33232383728034L44.405833333333334,93.2609464645385L44.9475,46.160668087005554L45.48916666666666,136.86807031631463L46.030833333333334,101.45535964965813L46.572500000000005,100.62165470123284L47.11416666666667,17.598382186889587L47.655833333333334,23.908983421325622L48.197500000000005,79.15767688751214L48.73916666666667,112.97792501449578L49.280833333333334,69.75499076843255L49.8225,66.1532976150512L50.36416666666667,49.92516918182367L50.905833333333334,86.02396888732903L51.4475,110.63092489242547L51.98916666666666,85.54525108337396L52.530833333333334,16.57300443649286L53.0725,71.73257131576531L53.61416666666666,88.56880302429192L54.155833333333334,104.31399364471429L54.697500000000005,-11.06493072509772L55.23916666666667,109.4700004577636L55.780833333333334,49.38813085556024L56.322500000000005,80.49035568237298L56.86416666666667,51.07132358551019L57.405833333333334,47.176255416870056L57.9475,57.58727045059198L58.48916666666667,110.41933364868157L59.030833333333334,70.2582690238952L59.5725,72.0904280662536L60.11416666666666,144.4201137542724L60.655833333333334,68.25452442169183L61.1975,84.53295536041253L61.73916666666666,67.05283470153802L62.280833333333334,171.40825195312493L62.822500000000005,108.51973886489861L63.36416666666667,98.41087646484368L63.905833333333334,87.8458311080932L64.4475,45.23100013732904L64.98916666666666,108.29278678894036L65.53083333333333,110.91442508697503L66.07249999999999,49.05517215728754L66.61416666666666,72.5572454452514L67.15583333333333,93.29740734100335L67.6975,79.0347058296203L68.23916666666668,69.14140148162835L68.78083333333333,107.11987752914422L69.3225,109.1112997055053L69.86416666666666,87.5002967834472L70.40583333333333,102.15284271240228L70.94749999999999,129.31484527587884L71.48916666666668,122.96145315170281L72.03083333333333,169.60706777572625L72.5725,77.18828315734856L73.11416666666666,145.3490221023559L73.65583333333333,88.33282012939446L74.19749999999999,152.3930608749389L74.73916666666666,93.26415367126458L75.28083333333333,121.5177881240844L75.8225,71.94888896942132L76.36416666666668,91.59370536804192L76.90583333333333,128.02318496704095L77.4475,131.4915258407592L77.98916666666666,163.06411285400384L78.53083333333333,130.186023902893L79.07249999999999,129.96337623596185L79.61416666666668,162.55188817977898L80.15583333333333,122.72150344848626L80.6975,115.55525321960442L81.23916666666666,107.15633840560906L81.78083333333333,171.05005760192864L82.32249999999999,108.23902387619012L82.86416666666666,136.41214056015008L83.40583333333333,119.91266555786126L83.9475,115.4373461723327L84.48916666666668,140.03518695831292L85.03083333333333,146.37878866195672L85.5725,90.54537076950066L86.11416666666666,143.44090290069573L86.65583333333333,134.41464157104485L87.19749999999999,119.0630933761596L87.73916666666668,91.7225000381469L88.28083333333333,127.98030967712396L88.8225,108.33515567779534L89.36416666666666,126.60728759765618L89.90583333333333,114.74138231277459L90.44749999999999,136.62795181274407L90.98916666666666,162.92519016265862L91.53083333333333,160.7510416030883L92.0725,91.13676280975335L92.61416666666668,153.89048881530755L93.15583333333333,136.12627716064446L93.6975,158.13463611602776L94.23916666666666,97.42052478790276L94.78083333333333,145.45907993316644L95.32249999999999,138.6820833206176L95.86416666666668,180.94293994903558L96.40583333333333,176.4581677436828L96.9475,185.7406680107116L97.48916666666666,138.4871189117431L98.03083333333333,148.91982479095452L98.57249999999999,127.35692996978753L99.11416666666666,128.81477422714227L99.65583333333333,82.8852951049804L100.1975,152.82265777587884L100.73916666666668,90.88516588211053L101.28083333333333,111.4834510803222L101.8225,138.91604061126702L102.36416666666666,172.36096115112298L102.90583333333333,121.20685787200921L103.44749999999999,138.91764421463006L103.98916666666668,147.43547887802117L104.53083333333333,125.48417444229119L105.0725,104.35248012542718L105.61416666666666,131.64969177246087L106.15583333333333,144.43614978790276L106.69749999999999,147.28752536773675L107.23916666666666,188.66412134170525L107.78083333333333,107.06408901214593L108.3225,141.38390178680413L108.86416666666668,150.55414981842034L109.40583333333333,188.82372207641595L109.9475,150.64378280639642L110.48916666666666,142.08476085662835L111.03083333333333,189.84935302734368L111.57249999999999,156.21124048233025L112.11416666666668,141.8409287452697L112.65583333333333,154.39908428192132L113.1975,130.04634160995477L113.73916666666666,139.71716709136956L114.28083333333333,134.032561969757L114.82249999999999,132.89375038146966L115.36416666666666,126.35957307815545L115.90583333333333,147.96711559295647L116.4475,146.27607364654534L116.98916666666668,171.94014186859124L117.53083333333333,103.6490890502929L118.0725,154.77609987258904L118.61416666666666,121.32214851379388L119.15583333333333,154.75424022674554L119.69749999999999,133.84494037628167L120.23916666666668,109.7679330825805L120.78083333333333,167.37004108428948L121.3225,150.36846942901605L121.86416666666666,192.6890813827514L122.40583333333333,131.91572113037103L122.94749999999999,141.3091232299804L123.48916666666666,108.55240173339837L124.03083333333333,149.32224483489983L124.5725,104.12282724380486L125.11416666666668,216.11738891601556L125.65583333333333,151.8189708709716L126.1975,162.29910964965813L126.73916666666666,208.25804443359368L127.28083333333333,142.0520135879516L127.82249999999999,130.07917327880853L128.36416666666668,170.3481013298034L128.90583333333333,184.20736999511712L129.4475,147.71408386230462L129.98916666666668,170.0931283950805L130.53083333333333,148.90935916900628L131.07250000000002,125.73197336196893L131.61416666666668,139.56558437347405L132.15583333333333,122.36516590118401L132.69750000000002,100.00865621566766L133.23916666666668,171.42124958038323L133.78083333333333,162.59248466491692L134.3225,125.94221420288079L134.86416666666668,128.99572820663445L135.40583333333333,163.6413256645202L135.9475,137.27378196716302L136.48916666666665,179.3928462982177L137.03083333333333,129.33738012313836L137.5725,120.24891586303704L138.11416666666665,154.77525587081902L138.65583333333333,161.80233020782464L139.19750000000002,92.03579349517815L139.73916666666668,101.19675750732415L140.28083333333333,119.04908294677728L140.82250000000002,150.92694540023797L141.36416666666668,156.69966430664056L141.90583333333333,168.54809875488274L142.4475,165.89168758392327L142.98916666666668,141.52603168487542L143.53083333333333,130.04954881668084L144.0725,144.81122417449944L144.61416666666665,135.6912786483764L145.15583333333333,109.09163446426385L145.6975,135.31721706390374L146.23916666666665,131.4521953582763L146.78083333333333,151.42651004791253L147.32250000000002,152.74998922348016L147.86416666666668,112.26330871582024L148.40583333333333,162.10929365158074L148.94750000000002,144.92533321380608L149.48916666666668,157.94515771865838L150.03083333333333,161.22410459518426L150.5725,152.311361503601L151.11416666666668,141.6203066825866L151.65583333333333,140.82880182266229L152.1975,170.63058872222894L152.73916666666665,135.587382030487L153.28083333333333,139.01326961517327L153.8225,150.14860696792596L154.36416666666665,179.91047258377068L154.90583333333333,99.19765491485589L155.44750000000002,152.99913854598992L155.98916666666668,145.0250942230224L156.53083333333333,194.3440000534057L157.07250000000002,114.10162897109979L157.61416666666668,175.5721346855163L158.15583333333333,189.906913948059L158.6975,147.4933773994445L159.23916666666668,107.72950000762933L159.78083333333333,139.04610128402703L160.3225,157.03945941925042L160.86416666666665,147.25317449569695L161.40583333333333,140.58074970245355L161.9475,106.01195640563958L162.48916666666665,188.18852634429925L163.03083333333333,174.8727104187011L163.57250000000002,201.16395635604852L164.11416666666668,117.40277309417718L164.65583333333333,133.82789154052728L165.19750000000002,181.4456274032592L165.73916666666668,120.54667968749993L166.28083333333333,135.78530044555657L166.8225,180.33238906860345L167.36416666666668,146.71765537261956L167.90583333333333,105.3905179023742L168.4475,133.4447147369384L168.98916666666665,112.03779144287103L169.53083333333333,136.5859205245971L170.0725,166.009003829956L170.61416666666665,151.5422226905822L171.15583333333333,183.8000547409057L171.69750000000002,167.05818243026727L172.23916666666668,87.07821149826043L172.78083333333333,170.7849566459655L173.32250000000002,171.497884941101L173.86416666666668,144.34921760559075L174.40583333333333,148.74342842102044L174.9475,173.66899509429925L175.48916666666668,109.31757373809808L176.03083333333333,153.9017140388488L176.5725,158.4859096527099L177.11416666666665,125.50552768707269L177.65583333333333,177.2531330108642L178.1975,193.50261468887322L178.73916666666665,127.58700485229485L179.28083333333333,144.8698822975158L179.82250000000002,137.53998012542718L180.36416666666668,155.56279392242425L180.90583333333333,186.5093004226684L181.44750000000002,172.102865409851L181.98916666666668,131.9099819183349L182.53083333333333,144.73382921218865L183.0725,138.68377132415765L183.61416666666668,112.56579895019524L184.15583333333333,116.48601837158196L184.6975,129.29340763092034L185.23916666666665,159.75849552154534L185.78083333333333,156.9181763648986L186.3225,119.92068357467645L186.86416666666665,140.74921245574944L187.40583333333333,215.9939958572387L187.94750000000002,146.82053918838494L188.48916666666668,112.45033950805657L189.03083333333333,142.83305282592767L189.57250000000002,143.87455101013177L190.11416666666668,205.7270519256591L190.65583333333333,185.02596731185906L191.1975,119.78842849731438L191.73916666666668,132.63540143966668L192.28083333333333,132.9166228294372L192.8225,161.515200805664L193.36416666666665,141.32380886077874L193.90583333333333,152.51915473937981L194.4475,133.59030504226678L194.98916666666665,135.54973955154412L195.53083333333333,122.18775672912591L196.07250000000002,140.42967338562005L196.61416666666668,192.66654653549188L197.15583333333333,121.34713096618646L197.69750000000002,136.05301780700677L198.23916666666668,106.50164623260491L198.78083333333333,138.97216672897332L199.3225,167.04307479858392L199.86416666666668,135.72706432342522L200.40583333333333,161.38016052246087L200.9475,144.4080445289611L201.48916666666665,127.40225286483758L202.03083333333333,168.02177925109856L202.5725,146.65604324340813L203.11416666666665,124.56919212341302L203.65583333333333,172.67611141204827L204.19750000000002,165.5174571990966L204.73916666666668,167.3877651214599L205.28083333333333,145.53031368255608L205.82250000000002,122.13390941619866L206.36416666666668,164.50389547348016L206.90583333333333,138.2491104125976L207.4475,169.02512855529778L207.98916666666668,123.93002958297723L208.53083333333333,143.13858146667474L209.0725,147.2936021804809L209.61416666666665,153.88474960327142L210.15583333333333,113.36135501861565L210.6975,166.51692409515374L211.23916666666665,174.4010822296142L211.78083333333333,149.46960754394524L212.32250000000002,160.50222988128655L212.86416666666668,156.21917409896844L213.40583333333333,152.60355491638177L213.94750000000002,166.20970745086663L214.48916666666668,164.7604720115661L215.03083333333333,159.31868619918816L215.5725,174.21641464233392L216.11416666666668,159.04615802764886L216.65583333333333,161.87668676376336L217.1975,146.66929407119744L217.73916666666665,143.063127708435L218.28083333333333,145.4742719650268L218.8225,156.02564449310296L219.36416666666665,130.60245437622063L219.90583333333333,124.60776300430291L220.44750000000002,179.56004304885857L220.98916666666668,154.4114067077636L221.53083333333333,106.00233478546136L222.07250000000002,83.29969997405999L222.61416666666668,170.6373407363891L223.15583333333333,109.61584396362298L223.6975,168.8271257400512L224.23916666666668,159.52099342346185L224.78083333333333,136.01892013549798L225.3225,140.17596645355218L225.86416666666665,103.16395683288567L226.40583333333333,141.17391414642327L226.9475,139.56490917205804L227.48916666666665,118.58099956512444L228.03083333333333,166.10581083297723L228.57250000000002,104.27238435745232L229.11416666666668,132.2992355346679L229.65583333333333,136.3487560272216L230.19750000000002,169.06800384521478L230.73916666666668,113.7782918930053L231.28083333333333,120.14155883789056L231.8225,123.95163602828973L232.36416666666668,137.49558563232415L232.90583333333333,120.46962232589715L233.4475,127.67874784469598L233.98916666666665,131.87639064788812L234.53083333333333,109.47092885971063L235.0725,149.94241733551019L235.61416666666665,127.10389823913567L236.15583333333333,153.80051822662347L236.69750000000002,106.91858310699456L237.23916666666668,127.85894222259515L237.78083333333333,115.94281883239739L238.32250000000002,112.78574581146233L238.86416666666668,138.07170124053948L239.40583333333333,131.59685726165765L239.9475,169.14016599655145L240.48916666666668,169.56815929412835L241.03083333333333,174.83219833374017L241.5725,94.05278892517083L242.11416666666665,170.36405296325677L242.65583333333333,110.42794246673577L243.1975,145.19608898162835L243.73916666666665,177.27288265228265L244.28083333333333,104.54930133819573L244.82250000000002,148.9147607803344L245.36416666666668,152.96453447341912L245.90583333333333,173.31417675018304L246.44750000000002,142.75920267105096L246.98916666666668,147.5618259429931L247.53083333333333,183.91078777313226L248.0725,159.64683408737176L248.61416666666668,135.51682348251336L249.15583333333333,172.68944664001458L249.6975,139.88478584289544L250.23916666666665,144.77223129272454L250.78083333333333,190.97136898040765L251.3225,186.84453792572015L251.86416666666665,113.6746484756469L252.40583333333333,176.84986896514886L252.94750000000002,169.37285728454583L253.48916666666668,208.81027479171746" style="fill: none;" fill="none"></path></g></g></g></g></g></g><g transform="translate(70, 177)" clip-path="url(#clip_1)"><clipPath id="clip_1"><rect width="260" height="23"></rect></clipPath><g><g><line x1="0" y1="0" x2="0" y2="5" style="visibility: inherit;" fill="rgb(0, 0, 0)" stroke="rgb(204, 204, 204)" stroke-width="1px"></line><line x1="21.666666666666664" y1="0" x2="21.666666666666664" y2="5" style="visibility: inherit;" fill="rgb(0, 0, 0)" stroke="rgb(204, 204, 204)" stroke-width="1px"></line><line x1="43.33333333333333" y1="0" x2="43.33333333333333" y2="5" style="visibility: inherit;" fill="rgb(0, 0, 0)" stroke="rgb(204, 204, 204)" stroke-width="1px"></line><line x1="65" y1="0" x2="65" y2="5" style="visibility: inherit;" fill="rgb(0, 0, 0)" stroke="rgb(204, 204, 204)" stroke-width="1px"></line><line x1="86.66666666666666" y1="0" x2="86.66666666666666" y2="5" style="visibility: inherit;" fill="rgb(0, 0, 0)" stroke="rgb(204, 204, 204)" stroke-width="1px"></line><line x1="108.33333333333334" y1="0" x2="108.33333333333334" y2="5" style="visibility: inherit;" fill="rgb(0, 0, 0)" stroke="rgb(204, 204, 204)" stroke-width="1px"></line><line x1="130" y1="0" x2="130" y2="5" style="visibility: inherit;" fill="rgb(0, 0, 0)" stroke="rgb(204, 204, 204)" stroke-width="1px"></line><line x1="151.66666666666669" y1="0" x2="151.66666666666669" y2="5" style="visibility: inherit;" fill="rgb(0, 0, 0)" stroke="rgb(204, 204, 204)" stroke-width="1px"></line><line x1="173.33333333333331" y1="0" x2="173.33333333333331" y2="5" style="visibility: inherit;" fill="rgb(0, 0, 0)" stroke="rgb(204, 204, 204)" stroke-width="1px"></line><line x1="195" y1="0" x2="195" y2="5" style="visibility: inherit;" fill="rgb(0, 0, 0)" stroke="rgb(204, 204, 204)" stroke-width="1px"></line><line x1="216.66666666666669" y1="0" x2="216.66666666666669" y2="5" style="visibility: inherit;" fill="rgb(0, 0, 0)" stroke="rgb(204, 204, 204)" stroke-width="1px"></line><line x1="238.33333333333331" y1="0" x2="238.33333333333331" y2="5" style="visibility: inherit;" fill="rgb(0, 0, 0)" stroke="rgb(204, 204, 204)" stroke-width="1px"></line><line x1="260" y1="0" x2="260" y2="5" style="visibility: inherit;" fill="rgb(0, 0, 0)" stroke="rgb(204, 204, 204)" stroke-width="1px"></line></g><g transform="translate(0, 8)"><text x="0" y="0" dx="0em" dy="0.95em" style="text-anchor: middle; visibility: hidden; font-family: Roboto, sans-serif; font-size: 12px; font-weight: 200;" fill="rgb(33, 33, 33)" stroke="none" stroke-width="1px">-2k</text><text x="21.666666666666664" y="0" dx="0em" dy="0.95em" style="text-anchor: middle; visibility: inherit; font-family: Roboto, sans-serif; font-size: 12px; font-weight: 200;" fill="rgb(33, 33, 33)" stroke="none" stroke-width="1px">0</text><text x="43.33333333333333" y="0" dx="0em" dy="0.95em" style="text-anchor: middle; visibility: hidden; font-family: Roboto, sans-serif; font-size: 12px; font-weight: 200;" fill="rgb(33, 33, 33)" stroke="none" stroke-width="1px">2k</text><text x="65" y="0" dx="0em" dy="0.95em" style="text-anchor: middle; visibility: inherit; font-family: Roboto, sans-serif; font-size: 12px; font-weight: 200;" fill="rgb(33, 33, 33)" stroke="none" stroke-width="1px">4k</text><text x="86.66666666666666" y="0" dx="0em" dy="0.95em" style="text-anchor: middle; visibility: hidden; font-family: Roboto, sans-serif; font-size: 12px; font-weight: 200;" fill="rgb(33, 33, 33)" stroke="none" stroke-width="1px">6k</text><text x="108.33333333333334" y="0" dx="0em" dy="0.95em" style="text-anchor: middle; visibility: inherit; font-family: Roboto, sans-serif; font-size: 12px; font-weight: 200;" fill="rgb(33, 33, 33)" stroke="none" stroke-width="1px">8k</text><text x="130" y="0" dx="0em" dy="0.95em" style="text-anchor: middle; visibility: hidden; font-family: Roboto, sans-serif; font-size: 12px; font-weight: 200;" fill="rgb(33, 33, 33)" stroke="none" stroke-width="1px">10k</text><text x="151.66666666666669" y="0" dx="0em" dy="0.95em" style="text-anchor: middle; visibility: inherit; font-family: Roboto, sans-serif; font-size: 12px; font-weight: 200;" fill="rgb(33, 33, 33)" stroke="none" stroke-width="1px">12k</text><text x="173.33333333333331" y="0" dx="0em" dy="0.95em" style="text-anchor: middle; visibility: hidden; font-family: Roboto, sans-serif; font-size: 12px; font-weight: 200;" fill="rgb(33, 33, 33)" stroke="none" stroke-width="1px">14k</text><text x="195" y="0" dx="0em" dy="0.95em" style="text-anchor: middle; visibility: inherit; font-family: Roboto, sans-serif; font-size: 12px; font-weight: 200;" fill="rgb(33, 33, 33)" stroke="none" stroke-width="1px">16k</text><text x="216.66666666666669" y="0" dx="0em" dy="0.95em" style="text-anchor: middle; visibility: hidden; font-family: Roboto, sans-serif; font-size: 12px; font-weight: 200;" fill="rgb(33, 33, 33)" stroke="none" stroke-width="1px">18k</text><text x="238.33333333333331" y="0" dx="0em" dy="0.95em" style="text-anchor: middle; visibility: inherit; font-family: Roboto, sans-serif; font-size: 12px; font-weight: 200;" fill="rgb(33, 33, 33)" stroke="none" stroke-width="1px">20k</text><text x="260" y="0" dx="0em" dy="0.95em" style="text-anchor: middle; visibility: hidden; font-family: Roboto, sans-serif; font-size: 12px; font-weight: 200;" fill="rgb(33, 33, 33)" stroke="none" stroke-width="1px">22k</text></g><line x1="0" y1="0" x2="260" y2="0" fill="rgb(0, 0, 0)" stroke="rgb(204, 204, 204)" stroke-width="1px"></line></g></g></g></g></svg>