<svg viewBox="0 0 330 200" xmlns="http://www.w3.org/2000/svg"><g><g><g><g><g><line x1="82" y1="177" x2="77" y2="177" style="visibility: inherit;" fill="rgb(0, 0, 0)" stroke="rgb(204, 204, 204)" stroke-width="1px"></line><line x1="82" y1="157.33333333333331" x2="77" y2="157.33333333333331" style="visibility: inherit;" fill="rgb(0, 0, 0)" stroke="rgb(204, 204, 204)" stroke-width="1px"></line><line x1="82" y1="137.66666666666666" x2="77" y2="137.66666666666666" style="visibility: inherit;" fill="rgb(0, 0, 0)" stroke="rgb(204, 204, 204)" stroke-width="1px"></line><line x1="82" y1="118" x2="77" y2="118" style="visibility: inherit;" fill="rgb(0, 0, 0)" stroke="rgb(204, 204, 204)" stroke-width="1px"></line><line x1="82" y1="98.33333333333334" x2="77" y2="98.33333333333334" style="visibility: inherit;" fill="rgb(0, 0, 0)" stroke="rgb(204, 204, 204)" stroke-width="1px"></line><line x1="82" y1="78.66666666666666" x2="77" y2="78.66666666666666" style="visibility: inherit;" fill="rgb(0, 0, 0)" stroke="rgb(204, 204, 204)" stroke-width="1px"></line><line x1="82" y1="58.999999999999986" x2="77" y2="58.999999999999986" style="visibility: inherit;" fill="rgb(0, 0, 0)" stroke="rgb(204, 204, 204)" stroke-width="1px"></line><line x1="82" y1="39.33333333333337" x2="77" y2="39.33333333333337" style="visibility: inherit;" fill="rgb(0, 0, 0)" stroke="rgb(204, 204, 204)" stroke-width="1px"></line><line x1="82" y1="19.666666666666675" x2="77" y2="19.666666666666675" style="visibility: inherit;" fill="rgb(0, 0, 0)" stroke="rgb(204, 204, 204)" stroke-width="1px"></line><line x1="82" y1="0" x2="77" y2="0" style="visibility: inherit;" fill="rgb(0, 0, 0)" stroke="rgb(204, 204, 204)" stroke-width="1px"></line></g><g transform="translate(72, 0)"><text x="0" y="177" dx="0em" dy="0.3em" style="text-anchor: end; visibility: hidden; font-family: Roboto, sans-serif; font-size: 12px; font-weight: 200;" fill="rgb(33, 33, 33)" stroke="none" stroke-width="1px">5.5e-3</text><text x="0" y="157.33333333333331" dx="0em" dy="0.3em" style="text-anchor: end; visibility: inherit; font-family: Roboto, sans-serif; font-size: 12px; font-weight: 200;" fill="rgb(33, 33, 33)" stroke="none" stroke-width="1px">6e-3</text><text x="0" y="137.66666666666666" dx="0em" dy="0.3em" style="text-anchor: end; visibility: hidden; font-family: Roboto, sans-serif; font-size: 12px; font-weight: 200;" fill="rgb(33, 33, 33)" stroke="none" stroke-width="1px">6.5e-3</text><text x="0" y="118" dx="0em" dy="0.3em" style="text-anchor: end; visibility: inherit; font-family: Roboto, sans-serif; font-size: 12px; font-weight: 200;" fill="rgb(33, 33, 33)" stroke="none" stroke-width="1px">7e-3</text><text x="0" y="98.33333333333334" dx="0em" dy="0.3em" style="text-anchor: end; visibility: hidden; font-family: Roboto, sans-serif; font-size: 12px; font-weight: 200;" fill="rgb(33, 33, 33)" stroke="none" stroke-width="1px">7.5e-3</text><text x="0" y="78.66666666666666" dx="0em" dy="0.3em" style="text-anchor: end; visibility: inherit; font-family: Roboto, sans-serif; font-size: 12px; font-weight: 200;" fill="rgb(33, 33, 33)" stroke="none" stroke-width="1px">8e-3</text><text x="0" y="58.999999999999986" dx="0em" dy="0.3em" style="text-anchor: end; visibility: hidden; font-family: Roboto, sans-serif; font-size: 12px; font-weight: 200;" fill="rgb(33, 33, 33)" stroke="none" stroke-width="1px">8.5e-3</text><text x="0" y="39.33333333333337" dx="0em" dy="0.3em" style="text-anchor: end; visibility: inherit; font-family: Roboto, sans-serif; font-size: 12px; font-weight: 200;" fill="rgb(33, 33, 33)" stroke="none" stroke-width="1px">9e-3</text><text x="0" y="19.666666666666675" dx="0em" dy="0.3em" style="text-anchor: end; visibility: hidden; font-family: Roboto, sans-serif; font-size: 12px; font-weight: 200;" fill="rgb(33, 33, 33)" stroke="none" stroke-width="1px">9.5e-3</text><text x="0" y="0" dx="0em" dy="0.3em" style="text-anchor: end; visibility: hidden; font-family: Roboto, sans-serif; font-size: 12px; font-weight: 200;" fill="rgb(33, 33, 33)" stroke="none" stroke-width="1px">0.01</text></g><line x1="82" y1="0" x2="82" y2="177" fill="rgb(0, 0, 0)" stroke="rgb(204, 204, 204)" stroke-width="1px"></line></g></g><g transform="translate(82, 0)" clip-path="url(#clip_0)"><clipPath id="clip_0"><rect width="248" height="177"></rect></clipPath><g><g><g><line x1="0" y1="0" x2="0" y2="177" fill="rgb(0, 0, 0)" stroke="rgb(66, 66, 66)" stroke-width="1px" opacity="0.25"></line><line x1="20.666666666666664" y1="0" x2="20.666666666666664" y2="177" fill="rgb(0, 0, 0)" stroke="rgb(66, 66, 66)" stroke-width="1px" opacity="0.25"></line><line x1="41.33333333333333" y1="0" x2="41.33333333333333" y2="177" fill="rgb(0, 0, 0)" stroke="rgb(66, 66, 66)" stroke-width="1px" opacity="0.25"></line><line x1="62" y1="0" x2="62" y2="177" fill="rgb(0, 0, 0)" stroke="rgb(66, 66, 66)" stroke-width="1px" opacity="0.25"></line><line x1="82.66666666666666" y1="0" x2="82.66666666666666" y2="177" fill="rgb(0, 0, 0)" stroke="rgb(66, 66, 66)" stroke-width="1px" opacity="0.25"></line><line x1="103.33333333333334" y1="0" x2="103.33333333333334" y2="177" fill="rgb(0, 0, 0)" stroke="rgb(66, 66, 66)" stroke-width="1px" opacity="0.25"></line><line x1="124" y1="0" x2="124" y2="177" fill="rgb(0, 0, 0)" stroke="rgb(66, 66, 66)" stroke-width="1px" opacity="0.25"></line><line x1="144.66666666666669" y1="0" x2="144.66666666666669" y2="177" fill="rgb(0, 0, 0)" stroke="rgb(66, 66, 66)" stroke-width="1px" opacity="0.25"></line><line x1="165.33333333333331" y1="0" x2="165.33333333333331" y2="177" fill="rgb(0, 0, 0)" stroke="rgb(66, 66, 66)" stroke-width="1px" opacity="0.25"></line><line x1="186" y1="0" x2="186" y2="177" fill="rgb(0, 0, 0)" stroke="rgb(66, 66, 66)" stroke-width="1px" opacity="0.25"></line><line x1="206.66666666666669" y1="0" x2="206.66666666666669" y2="177" fill="rgb(0, 0, 0)" stroke="rgb(66, 66, 66)" stroke-width="1px" opacity="0.25"></line><line x1="227.33333333333331" y1="0" x2="227.33333333333331" y2="177" fill="rgb(0, 0, 0)" stroke="rgb(66, 66, 66)" stroke-width="1px" opacity="0.25"></line><line x1="248" y1="0" x2="248" y2="177" fill="rgb(0, 0, 0)" stroke="rgb(66, 66, 66)" stroke-width="1px" opacity="0.25"></line></g><g><line x1="0" y1="177" x2="248" y2="177" fill="rgb(0, 0, 0)" stroke="rgb(66, 66, 66)" stroke-width="1px" opacity="0.25"></line><line x1="0" y1="157.33333333333331" x2="248" y2="157.33333333333331" fill="rgb(0, 0, 0)" stroke="rgb(66, 66, 66)" stroke-width="1px" opacity="0.25"></line><line x1="0" y1="137.66666666666666" x2="248" y2="137.66666666666666" fill="rgb(0, 0, 0)" stroke="rgb(66, 66, 66)" stroke-width="1px" opacity="0.25"></line><line x1="0" y1="118" x2="248" y2="118" fill="rgb(0, 0, 0)" stroke="rgb(66, 66, 66)" stroke-width="1px" opacity="0.25"></line><line x1="0" y1="98.33333333333334" x2="248" y2="98.33333333333334" fill="rgb(0, 0, 0)" stroke="rgb(66, 66, 66)" stroke-width="1px" opacity="0.25"></line><line x1="0" y1="78.66666666666666" x2="248" y2="78.66666666666666" fill="rgb(0, 0, 0)" stroke="rgb(66, 66, 66)" stroke-width="1px" opacity="0.25"></line><line x1="0" y1="58.999999999999986" x2="248" y2="58.999999999999986" fill="rgb(0, 0, 0)" stroke="rgb(66, 66, 66)" stroke-width="1px" opacity="0.25"></line><line x1="0" y1="39.33333333333337" x2="248" y2="39.33333333333337" fill="rgb(0, 0, 0)" stroke="rgb(66, 66, 66)" stroke-width="1px" opacity="0.25"></line><line x1="0" y1="19.666666666666675" x2="248" y2="19.666666666666675" fill="rgb(0, 0, 0)" stroke="rgb(66, 66, 66)" stroke-width="1px" opacity="0.25"></line><line x1="0" y1="0" x2="248" y2="0" fill="rgb(0, 0, 0)" stroke="rgb(66, 66, 66)" stroke-width="1px" opacity="0.25"></line></g></g></g><g><g><line x1="0" y1="393.33333333333337" x2="248" y2="393.33333333333337" fill="rgb(0, 0, 0)" stroke="rgb(153, 153, 153)" stroke-width="1.5px"></line></g></g><g><g><line x1="20.666666666666664" y1="0" x2="20.666666666666664" y2="177" fill="rgb(0, 0, 0)" stroke="rgb(153, 153, 153)" stroke-width="1.5px"></line></g></g><g><g><g><g><g><path stroke="rgb(255, 112, 67)" stroke-width="2px" d="M31.506333333333334,-4.266175757695405L32.022999999999996,6.4171163997546L32.53966666666667,23.34125938109673L33.056333333333335,30.947950393291606L33.573,38.82837739721741L34.089666666666666,47.05950906760004L34.60633333333334,58.98719252485522L35.123,59.87727159066923L35.63966666666666,62.98041195108506L36.156333333333336,69.75722980781441L36.673,73.93450895597235L37.18966666666667,71.96194619988924L37.70633333333333,67.170832878082L38.223000000000006,70.2249636604383L38.739666666666665,74.63983923051842L39.25633333333333,79.45657302472438L39.772999999999996,83.14747817152207L40.28966666666667,91.213754974512L40.806333333333335,91.8784277875739L41.323,95.19452730316289L41.839666666666666,87.07792738253566L42.35633333333334,88.40601724786958L42.873,93.68776684429682L43.38966666666666,93.32282893826557L43.906333333333336,99.73325307113808L44.423,102.5625972579095L44.93966666666667,101.30585493809014L45.45633333333333,103.79385284456585L45.973000000000006,101.917238252008L46.489666666666665,106.37534266090645L47.00633333333333,106.94293800190087L47.522999999999996,112.2811303262668L48.03966666666667,107.99882469873934L48.556333333333335,108.22385703509295L49.073,105.60190485350806L49.589666666666666,106.58919011361434L50.10633333333334,111.97544686860381L50.623,116.36773568496805L51.13966666666666,121.5824204097155L51.656333333333336,118.10941640872598L52.173,124.33611364863596L52.68966666666667,121.6045036090119L53.20633333333333,124.95834238483792L53.723000000000006,128.7239403383408L54.239666666666665,122.12510678979694L54.75633333333333,124.32507536733758L55.272999999999996,120.22448750104955L55.78966666666667,120.19392520049037L56.306333333333335,125.01169997904873L56.823,121.86644645696785L57.339666666666666,122.6007242667906L57.85633333333334,128.69504943004682L58.373,130.34991436033638L58.88966666666666,122.7693504267714L59.406333333333336,122.44021097700127L59.923,123.36787752005235L60.43966666666667,126.77094552449007L60.95633333333333,127.29646087266528L61.473000000000006,127.65279524260431L61.989666666666665,133.39839447797198L62.50633333333333,129.79105658937658L63.022999999999996,131.33164259686217L63.53966666666666,130.50855395476754L64.05633333333333,130.7132365112151L64.57300000000001,134.39399208133509L65.08966666666667,134.19337883874897L65.60633333333334,133.51613683221476L66.123,129.85474716046403L66.63966666666667,131.52442873434723L67.15633333333334,132.60196385601665L67.673,135.7253078404177L68.18966666666667,134.3573047264124L68.70633333333333,134.06098765641457L69.223,137.70504449301907L69.73966666666666,137.06098842609924L70.25633333333333,136.08021076854556L70.773,137.9843925090391L71.28966666666666,136.9678432642795L71.80633333333333,141.18358259157156L72.32300000000001,138.0059376825621L72.83966666666667,140.33417125926505L73.35633333333334,140.45110981300658L73.873,142.98161022644442L74.38966666666667,144.10304443346334L74.90633333333334,136.4321465385964L75.423,139.0373289002258L75.93966666666667,137.4015018390639L76.45633333333333,140.29964900801232L76.973,139.16695836105433L77.48966666666666,136.1351569989521L78.00633333333333,137.15714060376763L78.523,140.0477790330267L79.03966666666666,146.38186265122206L79.55633333333333,149.85027425405625L80.07300000000001,151.09161002654636L80.58966666666667,150.78952800941292L81.10633333333334,150.67867040545127L81.623,148.80577341895497L82.13966666666667,150.87943523313447L82.65633333333334,150.79810272730933L83.173,148.89922788645188L83.68966666666667,144.8853793240685L84.20633333333333,145.07091615357305L84.723,147.77727942094205L85.23966666666666,148.828676651959L85.75633333333333,149.9000968309926L86.273,151.39950695264704L86.78966666666666,151.6777568209317L87.30633333333333,152.94687889894442L87.82300000000001,153.72063019253378L88.33966666666667,156.4981101339277L88.85633333333334,155.85091995531L89.373,153.3017634931162L89.88966666666667,148.2064479390145L90.40633333333334,146.11113836957628L90.923,143.1462390735217L91.43966666666667,137.19762598280823L91.95633333333333,138.63523574696794L92.473,141.24387292735543L92.98966666666666,141.29979849543466L93.50633333333333,142.48827782463425L94.023,142.1055583897516L94.53966666666666,145.65758850557117L95.05633333333333,148.52374384350662L95.57300000000001,145.41634925642214L96.08966666666667,146.6503070291075L96.60633333333334,147.53293344626712L97.123,148.81723293450932L97.63966666666667,151.2141473395724L98.15633333333334,149.32339535840362L98.673,149.70400189936277L99.18966666666667,152.78849534327694L99.70633333333333,155.04713885932006L100.223,151.92124624762928L100.73966666666666,156.81552369471987L101.25633333333333,157.4513682796379L101.773,152.91524601370327L102.28966666666666,147.83138528221008L102.80633333333333,150.04056312376127L103.32300000000001,151.97639097899645L103.83966666666667,152.34873196620617L104.35633333333334,148.87958048255058L104.873,147.49957554589625L105.38966666666667,142.58755613538867L105.90633333333334,140.9823271918339L106.423,144.53518139323944L106.93966666666667,148.6807749845199L107.45633333333333,146.8046989158074L107.973,145.54683007002933L108.48966666666666,146.88013019136716L109.00633333333333,146.82118102941166L109.523,144.81577529071456L110.03966666666666,142.51101109352874L110.55633333333333,144.79990701201473L111.07300000000001,145.06879302192633L111.58966666666667,142.07842110422845L112.10633333333334,146.77390616823251L112.623,150.735631623799L113.13966666666667,152.92819234970545L113.65633333333334,151.12436883698658L114.173,151.42896541224783L114.68966666666667,154.80517047713363L115.20633333333333,157.51491376355673L115.723,152.99622707221602L116.23966666666666,150.63392299912175L116.75633333333333,152.088344343456L117.273,153.01526883014606L117.78966666666666,153.85988009115374L118.30633333333333,156.5303522076782L118.82300000000001,157.72910395507273L119.33966666666667,153.0859517036156L119.85633333333334,156.23615237675136L120.373,151.10614599184862L120.88966666666667,151.88493144166725L121.40633333333334,151.41184656217064L121.923,152.87988298591574L122.43966666666667,152.1841917796229L122.95633333333333,149.96216686067163L123.473,150.58808465846056L123.98966666666666,148.83034363490177L124.50633333333334,145.32323687420794L125.02300000000001,149.5508365169999L125.53966666666668,149.6584968137434L126.05633333333334,146.9666915517519L126.57300000000001,147.5172850473188L127.08966666666667,150.88956097874606L127.60633333333334,153.9750640327105L128.123,155.70529064966783L128.63966666666667,157.64931328838242L129.15633333333332,157.95763549626884L129.673,157.86368436984557L130.18966666666665,156.4683148304093L130.70633333333333,153.35379782207917L131.22299999999998,154.148631765894L131.73966666666666,152.85503338977477L132.25633333333334,154.80013818660325L132.77300000000002,156.80101854339867L133.28966666666668,158.27148827699963L133.80633333333333,159.35537842028057L134.323,160.08729694466285L134.83966666666666,157.88533027965732L135.35633333333334,157.7620559329698L135.873,157.97254138230534L136.38966666666667,157.68183338680495L136.90633333333332,155.8599872987158L137.423,157.3658131859518L137.93966666666665,160.88371718851218L138.45633333333333,162.1869141770172L138.97299999999998,159.23533032895708L139.48966666666666,158.59589337272752L140.00633333333334,158.13380373723535L140.52300000000002,160.45794430706363L141.03966666666668,161.2578349886473L141.55633333333333,158.90331546050427L142.073,160.13174582178638L142.58966666666666,158.7985737350144L143.10633333333334,160.73330065788434L143.623,162.49408749403878L144.13966666666667,158.5580440459417L144.65633333333332,154.229313710956L145.173,152.82970319539885L145.68966666666665,152.27288703907757L146.20633333333333,154.9111110179485L146.72299999999998,155.60916826412685L147.23966666666666,150.1461165210667L147.75633333333334,155.7798341320581L148.27300000000002,154.42182257409814L148.78966666666668,149.4069828140824L149.30633333333333,153.21468647653097L149.823,155.54358131414395L150.33966666666666,154.58929260651254L150.85633333333334,152.3411207882413L151.373,154.8122800721452L151.88966666666667,152.48813472753497L152.40633333333332,150.8570476387737L152.923,154.42148732049594L153.43966666666665,153.90938927737622L153.95633333333333,151.9730186804522L154.47299999999998,151.38965442029095L154.98966666666666,147.6441123116553L155.50633333333334,146.4299718338793L156.02300000000002,148.2866082318177L156.53966666666668,149.96582522524932L157.05633333333333,147.96625226757345L157.573,149.19552016586235L158.08966666666666,152.90828033534078L158.60633333333334,150.55693080342408L159.123,148.7193261848633L159.63966666666667,148.77628503100962L160.15633333333332,152.49062540860908L160.673,150.58626715625422L161.18966666666665,150.79574242424422L161.70633333333333,149.95087617947854L162.22299999999998,148.95490622827623L162.73966666666666,148.06429138610858L163.25633333333334,144.07665919013155L163.77300000000002,146.9185377771437L164.28966666666668,149.76593216207561L164.80633333333333,146.94463702496114L165.323,150.76103281286987L165.83966666666666,147.302095591563L166.35633333333334,147.1926338768193L166.873,149.32724337472078L167.38966666666667,151.97907844536934L167.90633333333332,152.39613426629785L168.423,154.59388266959158L168.93966666666665,155.48371866944584L169.45633333333333,153.29852136160036L169.97299999999998,149.62986326332103L170.48966666666666,152.35715706722237L171.00633333333334,155.2062101149355L171.52300000000002,156.30289300336247L172.03966666666668,155.39082718548067L172.55633333333333,155.64131824862892L173.073,153.1003277197688L173.58966666666666,154.4500177429788L174.10633333333334,156.6591482942432L174.623,154.89952538767028L175.13966666666667,153.522686698805L175.65633333333332,156.6336306334643L176.173,158.4371629139696L176.68966666666665,158.43973054710818L177.20633333333333,157.46856534496825L177.72299999999998,157.78885071073327L178.23966666666666,158.59697137316408L178.75633333333334,156.96302704533718L179.27300000000002,152.35639771215264L179.78966666666668,150.47991736492534L180.30633333333333,147.0324425335014L180.823,150.566262367776L181.33966666666666,147.1397368067891L181.85633333333334,149.554951326288L182.373,150.58453126148206L182.88966666666667,152.31802106730945L183.40633333333332,154.43602396299008L183.923,155.44384590126216L184.43966666666665,154.88847707066077L184.95633333333333,154.20525033645418L185.47299999999998,154.47379041880257L185.98966666666666,151.04851661563077L186.50633333333334,151.0736599318746L187.02300000000002,149.13114936732893L187.53966666666668,150.28854819319153L188.05633333333333,153.35964828810089L188.573,153.71518786100614L189.08966666666666,154.9924106731977L189.60633333333334,158.30740867133903L190.123,157.85807745568624L190.63966666666667,159.1816568922545L191.15633333333332,159.94965647893895L191.673,161.2989872223004L192.18966666666665,160.41817641377082L192.70633333333333,160.59408524246214L193.22299999999998,162.03287947312486L193.73966666666666,162.42272293529692L194.25633333333334,160.60215722005535L194.77300000000002,159.3214813401605L195.28966666666668,157.6177252139898L195.80633333333333,155.6014458887436L196.323,159.2546752846184L196.83966666666666,160.01788426487667L197.35633333333334,161.05826546465798L197.873,161.55706688714764L198.38966666666667,161.13673491644124L198.90633333333332,160.61666960079705L199.423,160.44683488749087L199.93966666666665,160.50846615344446L200.45633333333333,158.53741714986296L200.97299999999998,162.59516414760557L201.48966666666666,160.43791102445306L202.00633333333334,160.65396801748972L202.52300000000002,162.10161393804609L203.03966666666668,161.22944448092767L203.55633333333333,161.63260011923145L204.073,156.49274036877114L204.58966666666666,155.18497008508965L205.10633333333334,158.26350920102877L205.623,157.32977604038072L206.13966666666667,157.2094269101188L206.65633333333332,156.77868822811558L207.173,156.4706839451569L207.68966666666665,156.85710549849884L208.20633333333333,155.35145507664836L208.72299999999998,155.6312605506616L209.23966666666666,157.01524266952632L209.75633333333334,158.0613272199268L210.27300000000002,155.10295404234216L210.78966666666668,158.00886788700439L211.30633333333333,156.36910180362204L211.823,156.16675454997784L212.33966666666666,158.04083889991898L212.85633333333334,159.25375774426715L213.373,154.53328532041957L213.88966666666667,155.07022859883583L214.40633333333332,157.49302880929537L214.923,159.65214895019898L215.43966666666665,159.44378963168185L215.95633333333333,155.79870181930283L216.47299999999998,157.8322806768177L216.98966666666666,158.78858517623053L217.50633333333334,159.22007791940905L218.02300000000002,161.17688654625658L218.53966666666668,159.35907412611448L219.05633333333333,158.72769194833168L219.573,157.42946787084816L220.08966666666666,158.84953912313716L220.60633333333334,157.27203550689563L221.123,155.09753490260584L221.63966666666667,154.76925387542803L222.15633333333332,154.83186958060284L222.673,157.1825847872832L223.18966666666665,156.2148538728763L223.70633333333333,157.23290761189392L224.22299999999998,158.6187706284677L224.73966666666666,160.26751961457856L225.25633333333334,158.13049997895664L225.77300000000002,156.68381566264242L226.28966666666668,156.62187522826449L226.80633333333333,155.46736202547183L227.323,158.56263036634886L227.83966666666666,158.99300915245215L228.35633333333334,158.75508119080266L228.873,157.84944449940213L229.38966666666667,154.77189553748894L229.90633333333332,150.64027046053454L230.423,149.3302005163287L230.93966666666665,149.26956346746042L231.45633333333333,151.3445408504009L231.97299999999998,152.11319865511453L232.48966666666666,145.22471904213918L233.00633333333334,147.15742121873743L233.52300000000002,144.2181228335621L234.03966666666668,145.67834805147208L234.55633333333333,146.99305904792743L235.073,148.31506745461894L235.58966666666666,152.32569989534989L236.10633333333334,152.1582192210733L236.623,149.79442388051874L237.13966666666667,150.0103908479775L237.65633333333332,153.33923429218098L238.173,152.36013599271985L238.68966666666665,153.68945401072963L239.20633333333333,150.78621954087055L239.72299999999998,147.77349200428773L240.23966666666666,148.74466624071974L240.75633333333334,149.10166540616643L241.27300000000002,152.55567499382755L241.78966666666668,152.80870120392595" style="fill: none;" fill="none"></path></g></g></g></g><g opacity="0.2"><g><g><g><path stroke="rgb(255, 112, 67)" stroke-width="2px" d="M27.373,-60.39304338395594L27.889666666666663,2.651581019163145L28.406333333333333,18.498886475960415L28.923000000000002,10.686521828174598L29.439666666666668,30.029181490341816L29.956333333333333,26.2186453739802L30.473,33.645934214194625L30.98966666666667,74.32469487190247L31.506333333333334,-14.201383317510295L32.022999999999996,55.89475865165393L32.53966666666667,101.96796907732883L33.056333333333335,66.37847681840262L33.573,75.61179757118225L34.089666666666666,85.54702448348203L34.60633333333334,114.83945397039254L35.123,64.05007228255272L35.63966666666666,77.54252488414446L36.156333333333336,101.58441349864006L36.673,93.56603036324182L37.18966666666667,62.68662845094999L37.70633333333333,44.63206055263678L38.223000000000006,84.59781554838021L38.739666666666665,95.4227793092529L39.25633333333333,102.13698922346033L39.772999999999996,100.53036371866861L40.28966666666667,129.20966474960247L40.806333333333335,95.00978990147509L41.323,110.81894310812154L41.839666666666666,48.83137231071791L42.35633333333334,94.66466131309669L42.873,118.57972986996174L43.38966666666666,91.60284707943599L43.906333333333336,129.94745197395483L44.423,115.89861391733089L44.93966666666667,95.38206281761329L45.45633333333333,115.52159715443848L45.973000000000006,93.07120501995087L46.489666666666665,127.39042699337006L47.00633333333333,109.61856671919426L47.522999999999996,137.44551387925944L48.03966666666667,87.81172593434651L48.556333333333335,109.28468416134517L49.073,93.24165381491184L49.589666666666666,111.24341665456691L50.10633333333334,137.36726788183054L50.623,137.07388202349344L51.13966666666666,146.1655833820502L51.656333333333336,101.73687597115836L52.173,153.69025845080614L52.68966666666667,108.72701658556859L53.20633333333333,140.7691921169559L53.723000000000006,146.47594818224508L54.239666666666665,91.01645999898513L54.75633333333333,134.69631731510162L55.272999999999996,100.89320388933024L55.78966666666667,120.04984614749749L56.306333333333335,147.7240194628636L56.823,107.03884820143382L57.339666666666666,126.0623147462805L57.85633333333334,157.42540586739779L58.373,138.1514129290978L58.88966666666666,87.03243462989727L59.406333333333336,120.88855459044377L59.923,127.74116028100251L60.43966666666667,142.8139732281367L60.95633333333333,129.77388945718607L61.473000000000006,129.33265676101047L61.989666666666665,160.48478407164416L62.50633333333333,112.78503863761821L63.022999999999996,138.59440396229425L63.53966666666666,126.62827947487433L64.05633333333333,131.67816845079264L64.57300000000001,151.74612381805974L65.08966666666667,133.24763077000776L65.60633333333334,130.3234247242411L66.123,112.59391106665134L66.63966666666667,139.39578437556824L67.15633333333334,137.68177210042873L67.673,150.44964332133532L68.18966666666667,127.90814734995364L68.70633333333333,132.66406435519457L69.223,154.8841692879796L69.73966666666666,134.02472415318093L70.25633333333333,131.45654472211996L70.773,146.9612492000063L71.28966666666666,132.17553971956173L71.80633333333333,161.05778214832148L72.32300000000001,123.02561176319917L72.83966666666667,151.31012950092554L73.35633333333334,141.00239156434932L73.873,154.91111213962236L74.38966666666667,149.3898056820035L74.90633333333334,100.269342251122L75.423,151.31890287001926L75.93966666666667,129.68974570433298L76.45633333333333,153.96234278877574L76.973,133.82713103046018L77.48966666666666,121.84237916022538L78.00633333333333,141.97506330907345L78.523,153.67507447799045L79.03966666666666,176.24254255245128L79.55633333333333,166.2013575186332L80.07300000000001,156.9436215236783L80.58966666666667,149.3654270718495L81.10633333333334,150.15605598688126L81.623,139.97640191266933L82.13966666666667,160.65526949862638L82.65633333333334,150.4146780570348L83.173,139.9473893518249L83.68966666666667,125.96295038859049L84.20633333333333,145.94558977832395L84.723,160.53584910929203L85.23966666666666,153.78526359796524L85.75633333333333,154.95107767482597L86.273,158.46815466880798L86.78966666666666,152.98950619995594L87.30633333333333,158.92988298088312L87.82300000000001,157.36831486225128L88.33966666666667,169.59194414317608L88.85633333333334,152.79988054186106L89.373,141.28431160002947L89.88966666666667,124.18567461272082L90.40633333333334,136.2332503994306L90.923,129.1688566779097L91.43966666666667,109.15416426956652L91.95633333333333,145.4125389208396L92.473,153.5417339205742L92.98966666666666,141.56344760209322L93.50633333333333,148.09110894799232L94.023,140.3013096253077L94.53966666666666,162.40287333726883L95.05633333333333,162.0356190080444L95.57300000000001,130.7672033458948L96.08966666666667,152.4675365289052L96.60633333333334,151.6938865557313L97.123,154.87178766479093L97.63966666666667,162.51388667772213L98.15633333333334,140.4098503043254L98.673,151.4982898781697L99.18966666666667,167.32967872172594L99.70633333333333,165.69502972066402L100.223,137.18489536394677L100.73966666666666,179.88854594528675L101.25633333333333,160.44892132282257L101.773,131.53066961715618L102.28966666666666,123.86461326231559L102.80633333333333,160.45525866250196L103.32300000000001,161.1024365822474L103.83966666666667,154.1040537630518L104.35633333333334,132.52500920246044L104.873,140.9938379873832L105.38966666666667,119.4308932001392L105.90633333333334,133.41481931507587L106.423,161.28435119986534L106.93966666666667,168.2242876291275L107.45633333333333,137.96034030616283L107.973,139.6168769399325L108.48966666666666,153.16568790624538L109.00633333333333,146.54327783733606L109.523,135.361719665428L110.03966666666666,131.64569416393837L110.55633333333333,155.59041634202003L111.07300000000001,146.33639849722385L111.58966666666667,127.98095349222422L112.10633333333334,168.90976432710883L112.623,169.41233734289804L113.13966666666667,163.26455005755025L113.65633333333334,142.6206294198831L114.173,152.86492069562274L114.68966666666667,170.7215657830238L115.20633333333333,170.28941782812277L115.723,131.69384695589542L116.23966666666666,139.49734665453434L116.75633333333333,158.94490210960308L117.273,157.38505569597086L117.78966666666666,157.84161889304715L118.30633333333333,169.1197207570076L118.82300000000001,163.3803621927897L119.33966666666667,131.19680537531772L119.85633333333334,171.08709840724865L120.373,126.92183017730713L120.88966666666667,155.5563485622406L121.40633333333334,149.181589273115L121.923,159.80062612642843L122.43966666666667,148.90450466424227L122.95633333333333,139.4869065284729L123.473,153.538839990894L123.98966666666666,140.54385023812452L124.50633333333334,128.78973357379436L125.02300000000001,169.48094911873338L125.53966666666668,150.16603821267685L126.05633333333334,134.27675245950618L126.57300000000001,150.11294009784856L127.08966666666667,166.7874332269033L127.60633333333334,168.5210070014L128.123,163.86207327246666L128.63966666666667,166.81399144232273L129.15633333333332,159.41115447630486L129.673,157.42077191670734L130.18966666666665,149.8901441444953L130.70633333333333,138.6710747828086L131.22299999999998,157.89570607244968L131.73966666666666,146.75664104521275L132.25633333333334,163.96991794308025L132.77300000000002,166.2337402254343L133.28966666666668,165.20370273540416L133.80633333333333,164.46514623860517L134.323,163.5377699881792L134.83966666666666,147.5046302874883L135.35633333333334,157.18090544144312L135.873,158.964829929173L136.38966666666667,156.311352836589L136.90633333333332,147.2712843120098L137.423,164.46470665434995L137.93966666666665,177.4681217720111L138.45633333333333,168.33055712282658L138.97299999999998,145.32072075953084L139.48966666666666,155.58140486478806L140.00633333333334,155.9553811699152L140.52300000000002,171.41460699339706L141.03966666666668,165.0287482018272L141.55633333333333,147.80343768497306L142.073,165.92291752497354L142.58966666666666,152.51361961166063L143.10633333333334,169.8541561514139L143.623,170.79493972162405L144.13966666666667,140.00241064776978L144.65633333333332,133.82244213173786L145.173,146.23153933634362L145.68966666666665,149.64789658784866L146.20633333333333,167.34845263262588L146.72299999999998,158.9000095675389L147.23966666666666,124.39172973235449L147.75633333333334,182.3387885838747L148.27300000000002,148.0197680865725L148.78966666666668,125.76559537400802L149.30633333333333,171.16528945664564L149.823,166.52265697717664L150.33966666666666,150.0905029848218L150.85633333333334,141.74259650210539L151.373,166.4620309819778L151.88966666666667,141.53144953151542L152.40633333333332,143.1676370774706L152.923,171.22527439147234L153.43966666666665,151.49521278838316L153.95633333333333,142.84441443781057L154.47299999999998,148.63950862238804L154.98966666666666,129.98655665665865L155.50633333333334,140.70616672436395L156.02300000000002,157.03932267924148L156.53966666666668,157.8821339085698L157.05633333333333,138.53969403853017L157.573,154.99064025779563L158.08966666666666,170.4112925628821L158.60633333333334,139.47199729581672L159.123,140.05633298307657L159.63966666666667,149.0448053056995L160.15633333333332,170.0010871887207L160.673,141.60857825229564L161.18966666666665,151.7832686876257L161.70633333333333,145.96793531129757L162.22299999999998,144.25961931546527L162.73966666666666,143.86567855874696L163.25633333333334,125.27782169481118L163.77300000000002,160.3159654016296L164.28966666666668,163.18936283389726L164.80633333333333,133.64424566427866L165.323,168.75261295586824L165.83966666666666,130.99567726254463L166.35633333333334,146.6766000787417L166.873,159.3904024362564L167.38966666666667,164.48058663556972L167.90633333333332,154.36225456496078L168.423,164.9546965708335L168.93966666666665,159.67865981161594L169.45633333333333,142.99687691032887L169.97299999999998,132.334760800004L170.48966666666666,165.2143992856145L171.00633333333334,168.63746019701162L171.52300000000002,161.47296947737533L172.03966666666668,151.09108832975227L172.55633333333333,156.82220468918482L173.073,141.12137236942849L173.58966666666666,160.8128421381116L174.10633333333334,167.07362089306116L174.623,146.60416025668383L175.13966666666667,147.03187573701143L175.65633333333332,171.29950918257234L176.173,166.93952937920886L176.68966666666665,158.451835103333L177.20633333333333,152.89021510630846L177.72299999999998,159.29876743505397L178.23966666666666,162.4066830674807L178.75633333333334,149.26014664272466L179.27300000000002,130.63943085571128L179.78966666666668,141.63365287085372L180.30633333333333,130.78006118535995L180.823,167.2256987293561L181.33966666666666,130.98611630499363L181.85633333333334,160.94096263249713L182.373,155.43826524168253L182.88966666666667,160.4901872947812L183.40633333333332,164.42089475691316L183.923,160.19500646740198L184.43966666666665,152.2703097263972L184.95633333333333,150.9843243037661L185.47299999999998,155.73976509273052L185.98966666666666,134.90079725782076L186.50633333333334,151.19219270845255L187.02300000000002,139.9735995630423L187.53966666666668,155.7448569436868L188.05633333333333,167.83769159267345L188.573,155.39130299041668L189.08966666666666,161.01360393067202L189.60633333333334,173.93525637686253L190.123,155.73980172475177L190.63966666666667,165.4213885217905L191.15633333333332,163.57022595902282L191.673,167.6601178695758L192.18966666666665,156.26578260213137L192.70633333333333,161.4233697205782L193.22299999999998,168.81576656053463L193.73966666666666,164.26055639982224L194.25633333333334,152.01949027677375L194.77300000000002,153.2840093349417L195.28966666666668,149.5857320477565L195.80633333333333,146.09612906972566L196.323,176.47704243659973L196.83966666666666,163.61586945752302L197.35633333333334,165.96291969219843L197.873,163.90855930745602L198.38966666666667,159.1551699116826L198.90633333333332,158.1649331127604L199.423,159.64618552476168L199.93966666666665,160.79901355008283L200.45633333333333,149.24532899012166L200.97299999999998,181.72454285124937L201.48966666666666,150.2680034438769L202.00633333333334,161.6725224132339L202.52300000000002,168.9262304206689L203.03966666666668,157.11778846879798L203.55633333333333,163.53319098552066L204.073,132.26197297374407L204.58966666666666,149.01976731916267L205.10633333333334,172.77662217617035L205.623,152.9278911401828L206.13966666666667,156.6420667245984L206.65633333333332,154.74806301295757L207.173,155.0186637540658L207.68966666666665,158.6788071071108L208.20633333333333,148.25338880221048L208.72299999999998,156.950343499581L209.23966666666666,163.53972980131704L209.75633333333334,162.9928686718146L210.27300000000002,141.15633763372898L210.78966666666668,171.7081760118405L211.30633333333333,148.63877598196268L211.823,155.21283178279796L212.33966666666666,166.87580797821283L212.85633333333334,164.97180372476575L213.373,132.27962960799533L213.88966666666667,157.60153262565532L214.40633333333332,168.91480123003322L214.923,169.83085818588734L215.43966666666665,158.46152427295843L215.95633333333333,138.61471641808748L216.47299999999998,167.41915243367353L216.98966666666666,163.29687781631947L217.50633333333334,161.2542579943935L218.02300000000002,170.4018415013949L218.53966666666668,150.78938700258732L219.05633333333333,155.75117596735555L219.573,151.30926864842573L220.08966666666666,165.5441607410709L220.60633333333334,149.83523274461427L221.123,144.84631776809692L221.63966666666667,153.22164331873256L222.15633333333332,155.12705790499845L222.673,168.26452790449062L223.18966666666665,151.6526938478152L223.70633333333333,162.03230381011963L224.22299999999998,165.15212484945852L224.73966666666666,168.0401934062441L225.25633333333334,148.0559788395961L225.77300000000002,149.86373245716095L226.28966666666668,156.3298703233401L226.80633333333333,150.02465692659217L227.323,173.15460968762636L227.83966666666666,161.02193771551052L228.35633333333334,157.6334208001693L228.873,153.58001438279945L229.38966666666667,140.26345043132702L229.90633333333332,131.16260938346386L230.423,143.1541564936439L230.93966666666665,148.98370309422413L231.45633333333333,161.12657708426315L231.97299999999998,155.73687116305032L232.48966666666666,112.75045800954103L233.00633333333334,156.26873147984347L233.52300000000002,130.36143044630685L234.03966666666668,152.5622669359048L234.55633333333333,153.19098231693107L235.073,154.54739280045033L235.58966666666666,171.23296711593866L236.10633333333334,151.36866747091213L236.623,138.6508172750473L237.13966666666667,151.02852083742619L237.65633333333332,169.03235338628292L238.173,147.74438686668873L238.68966666666665,159.95623895277578L239.20633333333333,137.09954275439182L239.72299999999998,133.57063361754018L240.23966666666666,153.3230590696136L240.75633333333334,150.78466147184372L241.27300000000002,168.83886304994422L241.78966666666668,154.00153905153275" style="fill: none;" fill="none"></path></g></g></g></g></g></g><g transform="translate(82, 177)" clip-path="url(#clip_1)"><clipPath id="clip_1"><rect width="248" height="23"></rect></clipPath><g><g><line x1="0" y1="0" x2="0" y2="5" style="visibility: inherit;" fill="rgb(0, 0, 0)" stroke="rgb(204, 204, 204)" stroke-width="1px"></line><line x1="20.666666666666664" y1="0" x2="20.666666666666664" y2="5" style="visibility: inherit;" fill="rgb(0, 0, 0)" stroke="rgb(204, 204, 204)" stroke-width="1px"></line><line x1="41.33333333333333" y1="0" x2="41.33333333333333" y2="5" style="visibility: inherit;" fill="rgb(0, 0, 0)" stroke="rgb(204, 204, 204)" stroke-width="1px"></line><line x1="62" y1="0" x2="62" y2="5" style="visibility: inherit;" fill="rgb(0, 0, 0)" stroke="rgb(204, 204, 204)" stroke-width="1px"></line><line x1="82.66666666666666" y1="0" x2="82.66666666666666" y2="5" style="visibility: inherit;" fill="rgb(0, 0, 0)" stroke="rgb(204, 204, 204)" stroke-width="1px"></line><line x1="103.33333333333334" y1="0" x2="103.33333333333334" y2="5" style="visibility: inherit;" fill="rgb(0, 0, 0)" stroke="rgb(204, 204, 204)" stroke-width="1px"></line><line x1="124" y1="0" x2="124" y2="5" style="visibility: inherit;" fill="rgb(0, 0, 0)" stroke="rgb(204, 204, 204)" stroke-width="1px"></line><line x1="144.66666666666669" y1="0" x2="144.66666666666669" y2="5" style="visibility: inherit;" fill="rgb(0, 0, 0)" stroke="rgb(204, 204, 204)" stroke-width="1px"></line><line x1="165.33333333333331" y1="0" x2="165.33333333333331" y2="5" style="visibility: inherit;" fill="rgb(0, 0, 0)" stroke="rgb(204, 204, 204)" stroke-width="1px"></line><line x1="186" y1="0" x2="186" y2="5" style="visibility: inherit;" fill="rgb(0, 0, 0)" stroke="rgb(204, 204, 204)" stroke-width="1px"></line><line x1="206.66666666666669" y1="0" x2="206.66666666666669" y2="5" style="visibility: inherit;" fill="rgb(0, 0, 0)" stroke="rgb(204, 204, 204)" stroke-width="1px"></line><line x1="227.33333333333331" y1="0" x2="227.33333333333331" y2="5" style="visibility: inherit;" fill="rgb(0, 0, 0)" stroke="rgb(204, 204, 204)" stroke-width="1px"></line><line x1="248" y1="0" x2="248" y2="5" style="visibility: inherit;" fill="rgb(0, 0, 0)" stroke="rgb(204, 204, 204)" stroke-width="1px"></line></g><g transform="translate(0, 8)"><text x="0" y="0" dx="0em" dy="0.95em" style="text-anchor: middle; visibility: hidden; font-family: Roboto, sans-serif; font-size: 12px; font-weight: 200;" fill="rgb(33, 33, 33)" stroke="none" stroke-width="1px">-2k</text><text x="20.666666666666664" y="0" dx="0em" dy="0.95em" style="text-anchor: middle; visibility: inherit; font-family: Roboto, sans-serif; font-size: 12px; font-weight: 200;" fill="rgb(33, 33, 33)" stroke="none" stroke-width="1px">0</text><text x="41.33333333333333" y="0" dx="0em" dy="0.95em" style="text-anchor: middle; visibility: hidden; font-family: Roboto, sans-serif; font-size: 12px; font-weight: 200;" fill="rgb(33, 33, 33)" stroke="none" stroke-width="1px">2k</text><text x="62" y="0" dx="0em" dy="0.95em" style="text-anchor: middle; visibility: inherit; font-family: Roboto, sans-serif; font-size: 12px; font-weight: 200;" fill="rgb(33, 33, 33)" stroke="none" stroke-width="1px">4k</text><text x="82.66666666666666" y="0" dx="0em" dy="0.95em" style="text-anchor: middle; visibility: hidden; font-family: Roboto, sans-serif; font-size: 12px; font-weight: 200;" fill="rgb(33, 33, 33)" stroke="none" stroke-width="1px">6k</text><text x="103.33333333333334" y="0" dx="0em" dy="0.95em" style="text-anchor: middle; visibility: inherit; font-family: Roboto, sans-serif; font-size: 12px; font-weight: 200;" fill="rgb(33, 33, 33)" stroke="none" stroke-width="1px">8k</text><text x="124" y="0" dx="0em" dy="0.95em" style="text-anchor: middle; visibility: hidden; font-family: Roboto, sans-serif; font-size: 12px; font-weight: 200;" fill="rgb(33, 33, 33)" stroke="none" stroke-width="1px">10k</text><text x="144.66666666666669" y="0" dx="0em" dy="0.95em" style="text-anchor: middle; visibility: inherit; font-family: Roboto, sans-serif; font-size: 12px; font-weight: 200;" fill="rgb(33, 33, 33)" stroke="none" stroke-width="1px">12k</text><text x="165.33333333333331" y="0" dx="0em" dy="0.95em" style="text-anchor: middle; visibility: hidden; font-family: Roboto, sans-serif; font-size: 12px; font-weight: 200;" fill="rgb(33, 33, 33)" stroke="none" stroke-width="1px">14k</text><text x="186" y="0" dx="0em" dy="0.95em" style="text-anchor: middle; visibility: inherit; font-family: Roboto, sans-serif; font-size: 12px; font-weight: 200;" fill="rgb(33, 33, 33)" stroke="none" stroke-width="1px">16k</text><text x="206.66666666666669" y="0" dx="0em" dy="0.95em" style="text-anchor: middle; visibility: hidden; font-family: Roboto, sans-serif; font-size: 12px; font-weight: 200;" fill="rgb(33, 33, 33)" stroke="none" stroke-width="1px">18k</text><text x="227.33333333333331" y="0" dx="0em" dy="0.95em" style="text-anchor: middle; visibility: inherit; font-family: Roboto, sans-serif; font-size: 12px; font-weight: 200;" fill="rgb(33, 33, 33)" stroke="none" stroke-width="1px">20k</text><text x="248" y="0" dx="0em" dy="0.95em" style="text-anchor: middle; visibility: hidden; font-family: Roboto, sans-serif; font-size: 12px; font-weight: 200;" fill="rgb(33, 33, 33)" stroke="none" stroke-width="1px">22k</text></g><line x1="0" y1="0" x2="248" y2="0" fill="rgb(0, 0, 0)" stroke="rgb(204, 204, 204)" stroke-width="1px"></line></g></g></g></g></svg>